{"title":"Adventures of Sinbad Season 1 Fixed","uid":7698746,"size":16175946687,"categoryP":"video","categoryS":"tv_shows","magnet":"?xt=urn:btih:06d47387c4007d4bd19c7020ccef714d1069733d&amp;dn=Adventures+of+Sinbad+Season+1+Fixed+&amp;tr=udp%3A%2F%2Ftracker.openbittorrent.com%3A80&amp;tr=udp%3A%2F%2Fopen.demonii.com%3A1337&amp;tr=udp%3A%2F%2Ftracker.coppersurfer.tk%3A6969&amp;tr=udp%3A%2F%2Fexodus.desync.com%3A6969","seeders":1,"leechers":1,"uploader":"claudiatannahill","files":22,"time":1349442388,"description":"Season one\n\nIn season one, Sinbad and his crew search for Master Dim-Dim, Sinbad and Maeve's old teacher who has disappeared.\n\n    Return of Sinbad, Part 1\n    Return of Sinbad, Part 2\n    The Beast Within\n    Still Life\n    The Ronin\n    Little Miss Magic\n    King Firouz\n    The Ties That Bind\n    Double Trouble\n    Conundrum\n    The Prince Who Wasn't\n    The Village Vanishes\n    Masked Marauders\n    The Ghoul's Tale\n    The Rescue\n    The Eye of Kratos\n    The Bully\n    Monument\n    Trickster\n    The Siren's Song\n    Isle of Bliss\n\nThe Vengeance of Rumina\n\nThis Torrent has all files fixed and working\n\nthanks to all who kept this alive\n\n{Quote}Thanks &quot;claudiatannahill&quot; for this torrent, The Audio/Video quality is perfect. I would rate 10/10. This is the best quality on the net. The details are:\nVideo\nID : 1\nFormat : AVC\nFormat/Info : Advanced Video Codec\nFormat profile : &lt;a class=&quot;__cf_email__&quot; href=&quot;/cdn-cgi/l/email-protection&quot; data-cfemail=&quot;5419353d3a1418677a64&quot;&gt;[email&amp;#160;protected]&lt;/a&gt;&lt;script cf-hash='f9e31' type=&quot;text/javascript&quot;&gt;\n/* &lt;![CDATA[ */!function(){try{var t=&quot;currentScript&quot;in document?document.currentScript:function(){for(var t=document.getElementsByTagName(&quot;script&quot;),e=t.length;e--;)if(t[e].getAttribute(&quot;cf-hash&quot;))return t[e]}();if(t&amp;&amp;t.previousSibling){var e,r,n,i,c=t.previousSibling,a=c.getAttribute(&quot;data-cfemail&quot;);if(a){for(e=&quot;&quot;,r=parseInt(a.substr(0,2),16),n=2;a.length-n;n+=2)i=parseInt(a.substr(n,2),16)^r,e+=String.fromCharCode(i);e=document.createTextNode(e),c.parentNode.replaceChild(e,c)}}}catch(u){}}();/* ]]&gt; */&lt;/script&gt;\nFormat settings, CABAC : Yes\nFormat settings, ReFrames : 4 frames\nCodec ID : avc1\nCodec ID/Info : Advanced Video Coding\nDuration : 42mn 57s\nBit rate mode : Variable\nBit rate : 2 078 Kbps\nNominal bit rate : 2 115 Kbps\nWidth : 720 pixels\nHeight : 480 pixels\nDisplay aspect ratio : 4:3\nOriginal display aspect ratio : 4:3\nFrame rate mode : Constant\nFrame rate : 29.970 fps\nStandard : NTSC\nResolution : 24 bits\nColorimetry : 4:2:0\nScan type : Progressive\nBits/(Pixel*Frame) : 0.201\nStream size : 638 MiB (92%)\n\nAudio\nID : 2\nFormat : AAC\nFormat/Info : Advanced Audio Codec\nFormat version : Version 4\nFormat profile : LC\nFormat settings, SBR : No\nCodec ID : 40\nDuration : 42mn 57s\nBit rate mode : Variable\nBit rate : 165 Kbps\nMaximum bit rate : 258 Kbps\nChannel(s) : 2 channels\nChannel positions : L R\nSampling rate : 48.0 KHz\nResolution : 16 bits\nStream size : 50.6 MiB (7%)\nLanguage : English \n\nI will upload season two next","torrent":{"xt":"urn:btih:06d47387c4007d4bd19c7020ccef714d1069733d","amp;dn":"Adventures+of+Sinbad+Season+1+Fixed+","amp;tr":["udp%3A%2F%2Ftracker.openbittorrent.com%3A80","udp%3A%2F%2Fopen.demonii.com%3A1337","udp%3A%2F%2Ftracker.coppersurfer.tk%3A6969","udp%3A%2F%2Fexodus.desync.com%3A6969"],"infoHash":"06d47387c4007d4bd19c7020ccef714d1069733d","infoHashBuffer":{"type":"Buffer","data":[6,212,115,135,196,0,125,75,209,156,112,32,204,239,113,77,16,105,115,61]},"announce":[],"urlList":[]}}